<?xml version="1.0" encoding="UTF-8"?> <svg xmlns="http://www.w3.org/2000/svg" viewBox="0 0 2154.25 433.15"><defs><style>.cls-1{fill:#5c7366;}</style></defs><title>full-line-drk-grn</title><g id="Layer_2" data-name="Layer 2"><g id="Calque_1" data-name="Calque 1"><path class="cls-1" d="M166,185.47c-21.51,1-45.82,6.87-68.62,23.16a121.18,121.18,0,0,0-15.33,13,9.4,9.4,0,0,1-13.34,0,378.45,378.45,0,0,0-49.65-42,13.6,13.6,0,0,1-5-15.48c.12-.33.21-.63.3-.89a230.22,230.22,0,0,1,24.3-49.23A10.52,10.52,0,0,1,51.5,110a466.53,466.53,0,0,1,116.79,68.49A3.91,3.91,0,0,1,166,185.47Z"></path><path class="cls-1" d="M57.86,390.42q-5.89-5.12-11.49-11C-2.36,327.9-3.74,259.38,2.81,213.15a4.5,4.5,0,0,1,7.14-3A344.13,344.13,0,0,1,51.1,246.57a15.81,15.81,0,0,1,3.09,17A136.82,136.82,0,0,0,47,286.27a148.38,148.38,0,0,0,7.77,89.78q2.7,6.31,5.86,12.16A1.8,1.8,0,0,1,57.86,390.42Z"></path><path class="cls-1" d="M132.23,418.24C111.4,407,93,389.31,82.39,364.35c-9.36-22.13-11.88-50.12-5-76a3.94,3.94,0,0,1,7-1.24,329.74,329.74,0,0,1,17.78,28.39,335.84,335.84,0,0,1,36.21,98.22A4.24,4.24,0,0,1,132.23,418.24Z"></path><path class="cls-1" d="M300.88,367.11c-1.31,1.93-2.66,3.84-4.07,5.7-12.91,17.23-47.47,56.19-98,60.06h-.12c-3.42.15-6.88.26-10.39.28h-.15c-2.54-.06-5.12-.19-7.73-.43a10.89,10.89,0,0,1-9.78-9.21,366.46,366.46,0,0,0-42.21-122.67,364.94,364.94,0,0,0-26.58-40.91,12.8,12.8,0,0,1,1-16.72,93.48,93.48,0,0,1,12-10.17c34.36-24.54,74.83-17.93,93.51-12.86a26.22,26.22,0,0,1,12.45,7.71,464.4,464.4,0,0,1,81.37,125.22A14.5,14.5,0,0,1,300.88,367.11Z"></path><path class="cls-1" d="M378.53,359.41a220.64,220.64,0,0,1-60.64,44.47,3,3,0,0,1-3.69-4.68q3.38-4.08,6.61-8.39C350.9,350.7,363.29,297.15,356.66,236,353,202.09,343.61,167.11,329,132.3a4,4,0,0,1,4.39-5.45,296.53,296.53,0,0,1,50.85,13.83A286.52,286.52,0,0,1,431,163.18a16.83,16.83,0,0,1,8,11.24c.52,2.74,1,5.52,1.39,8.35C453.53,273.34,396.37,340.88,378.53,359.41Z"></path><path class="cls-1" d="M411.94,119.56q-8.51-3.75-17.19-7C363.07,100.75,336,96.38,310.22,92.86l-9.15-1.21c-9.73-1.29-19.11-2.54-28.35-4.1-24.27-4.08-47.62-10.33-74.25-25.32a235.88,235.88,0,0,1-48.73-36.61,5,5,0,0,1,1.51-8.1q1.88-.8,3.36-1.38C167.18,11.14,195.23,0,232.22,0c3.27,0,6.6.09,10,.29C288.62,2.8,332.12,22.6,371.48,59.11c8.85,8.19,28.7,26.6,45.15,55.31A3.66,3.66,0,0,1,411.94,119.56Z"></path><path class="cls-1" d="M323.75,312.43a3.94,3.94,0,0,1-7.36,1,491.76,491.76,0,0,0-95.7-128.65A493.39,493.39,0,0,0,68.08,84.43a3.88,3.88,0,0,1-1.37-6.23c2.91-3.16,6-6.29,9.14-9.43a260,260,0,0,1,35.31-29,8.89,8.89,0,0,1,11.4,1.14,269.33,269.33,0,0,0,61.2,47.49c36,20.23,67.9,26.62,98.5,31a16,16,0,0,1,12.26,9c9,19.19,30.85,69.8,32.31,110.78C327.77,265.71,328.63,290.19,323.75,312.43Z"></path><path class="cls-1" d="M752.42,330.94c-6,0-14.64-2.16-23.28-7.68V293c5,6,12.48,10.8,20.4,10.8,9.6,0,15.36-6.72,15.36-16.08v-131c0-13.2-9.36-26.64-23.52-26.64-14.64,0-25,10.08-25,25,0,8.4,7.2,17.76,14.64,21.36l-22.32,19.44c-12.24-7.2-22.56-26.88-22.56-41,0-31.44,24.48-52.57,55.2-52.57,32.16,0,53.52,22.57,53.52,54.49v131C794.9,313.18,778.1,330.94,752.42,330.94Z"></path><path class="cls-1" d="M808.1,153.58a52,52,0,0,0,16.08-13.68l-2.64-.48c-8.64-2.16-14.88-9.36-14.88-18.24a18.86,18.86,0,0,1,19-19c13.68,0,19.68,10.33,19.68,23.05,0,17.28-13.2,31.68-27.84,39.36Z"></path><path class="cls-1" d="M860.41,146.38a18.85,18.85,0,1,1,19,19A19,19,0,0,1,860.41,146.38Zm31.45,131c-15.84,0-26.16-14.4-26.16-29.28V184.06h27.12v60.48c0,5.52,4.56,8.64,9.6,8.64a15,15,0,0,0,10.08-3.84v22.08C906.74,275.74,898.82,277.42,891.86,277.42Z"></path><path class="cls-1" d="M1066.58,277.42c-15.84,0-26.16-14.4-26.16-29.28v-30c0-7.2-4.08-13.44-12-13.44-9.12,0-14.64,8.16-16.32,17v53.52H984.74V218.14c0-7.2-3.84-13.44-11.76-13.44-9.12,0-14.64,7.68-16.32,16.8v53.76H929.3v-91.2h27.36v8.88c5.52-7.44,14.64-10.8,23.52-10.8a30.89,30.89,0,0,1,26.16,13.92c5.28-10.08,16.56-13.92,27.36-13.92,19.44,0,33.84,13.44,33.84,33.12v29.28c0,5.52,4.56,8.64,9.84,8.64a14.87,14.87,0,0,0,9.84-3.84v22.08C1081.7,275.74,1073.78,277.42,1066.58,277.42Z"></path><path class="cls-1" d="M1216.34,249.34v22.08c-5.76,4.32-13.68,6-20.88,6-9.84,0-19.2-6-23.52-16.32-7,11-18,16.32-31,16.32-26.88,0-44.16-21.84-44.16-47.76,0-25.68,17.28-47.52,44.16-47.52,11.29,0,21.12,3.84,28.33,12.48V184.06h27.36v60.48c0,5.52,4.32,8.64,9.6,8.64A16,16,0,0,0,1216.34,249.34Zm-47-10.32V220.3a23.57,23.57,0,0,0-21.84-15.6c-13.44,0-23.53,11.76-23.53,25s10.09,25,23.53,25C1157.06,254.62,1165.94,248.14,1169.3,239Z"></path><path class="cls-1" d="M1326.26,184.06V292.54c0,17.76-13,38.4-32.64,38.4l-10.33-22.8c8.17,0,15.6-7.44,15.6-15.6V264.22c-7.19,9.12-17.27,13.2-28.8,13.2-26.88,0-44.16-21.84-44.16-47.76,0-25.68,17.28-47.52,44.16-47.52,11.53,0,21.61,4.08,28.8,13.2V184.06Zm-27.84,36.24a23.57,23.57,0,0,0-21.84-15.6c-13.44,0-23.53,11.76-23.53,25s10.09,25,23.53,25c9.6,0,18.48-6.48,21.84-15.6Z"></path><path class="cls-1" d="M1354.57,146.38a18.84,18.84,0,1,1,19,19A19,19,0,0,1,1354.57,146.38Zm31.44,131c-15.84,0-26.16-14.4-26.16-29.28V184.06H1387v60.48c0,5.52,4.56,8.64,9.6,8.64a15,15,0,0,0,10.08-3.84v22.08C1400.89,275.74,1393,277.42,1386,277.42Z"></path><path class="cls-1" d="M1525.93,249.34v22.08c-5.76,4.32-13.68,6-20.64,6-16.08,0-26.4-14.4-26.4-29.28v-30c0-7.2-3.84-13.44-11.76-13.44-9.12,0-14.4,7.44-16.32,16.8v53.76h-27.36v-91.2h27.36v8.88c5.52-7.44,14.64-10.8,23.52-10.8,18.72,0,31.92,15.12,31.92,33.12v29.28c0,5.52,4.56,8.64,9.6,8.64A16,16,0,0,0,1525.93,249.34Z"></path><path class="cls-1" d="M1588.33,254.38c9.12,0,18.48-2.4,25.68-8.64v26.4c-7.44,3.6-17.52,5.28-25.68,5.28-28.8,0-52.8-18.24-52.8-48.48,0-25,20.88-46.8,46.08-46.8,18.48,0,31.68,7,42.24,22.08l-48,48A35,35,0,0,0,1588.33,254.38Zm-28.56-25.44a25.68,25.68,0,0,0,1.92,9.84L1591,208.3c-2.4-2.4-7.44-3.12-10.56-3.12C1567,205.18,1559.77,216.46,1559.77,228.94Z"></path><path class="cls-1" d="M1903.7,243.82v25.92c-8.65,5.76-15.85,7.68-21.85,7.68-17,0-31.44-6.48-31.44-36.24V219.34h-30.24c-10.32,36-37.2,58.08-79.92,58.08V250.06c25.2,0,40.56-11.76,48.48-30.72h-16.56V192.22h22.32c.24-3.36.48-6.72.48-10.32,0-25.92-9.6-52.08-39.6-52.08-17,0-31,9.84-31,28.08,0,6.72,5,16.08,10.8,19.68l-19.68,21.6c-12.24-7.68-20.88-27.12-20.88-41.28,0-33.6,28.8-55.69,60.72-55.69,45.6,0,69.6,34.09,69.6,79.69,0,3.6,0,7-.24,10.32h25.68V104.86h30V241.18c0,5.76,3.36,9.12,9.12,9.12A19.66,19.66,0,0,0,1903.7,243.82Z"></path><path class="cls-1" d="M1915.21,146.38a18.84,18.84,0,1,1,19,19A19,19,0,0,1,1915.21,146.38Zm31.44,131c-15.84,0-26.16-14.4-26.16-29.28V184.06h27.12v60.48c0,5.52,4.56,8.64,9.6,8.64a15,15,0,0,0,10.08-3.84v22.08C1961.53,275.74,1953.61,277.42,1946.65,277.42Z"></path><path class="cls-1" d="M2029.69,254.38c9.12,0,18.48-2.4,25.68-8.64v26.4c-7.44,3.6-17.52,5.28-25.68,5.28-28.8,0-52.8-18.24-52.8-48.48,0-25,20.88-46.8,46.08-46.8,18.48,0,31.68,7,42.24,22.08l-48,48A35,35,0,0,0,2029.69,254.38Zm-28.56-25.44a25.68,25.68,0,0,0,1.92,9.84l29.28-30.48c-2.4-2.4-7.44-3.12-10.56-3.12C2008.33,205.18,2001.13,216.46,2001.13,228.94Z"></path><path class="cls-1" d="M2154.25,200.86a18.77,18.77,0,0,1-33.36,12c-4.8,2.64-7.68,8.16-9.12,15.36v47h-27.36v-91.2h27.36v13.2c5-8.4,13.68-15.12,23.52-15.12A18.8,18.8,0,0,1,2154.25,200.86Z"></path></g></g></svg> 