<svg width="253" height="253" viewBox="0 0 253 253" fill="none" xmlns="http://www.w3.org/2000/svg">
<g clip-path="url(#clip0_16_8)">
<path d="M125.114 28.935C178.491 28.935 222 72.3255 222 125.647C221.937 136.932 215.789 147.311 205.908 152.812C196.026 158.314 183.941 158.087 174.275 152.218L173.826 151.949L173.647 152.397C160.137 176.82 130.521 187.411 104.527 177.115C78.5326 166.819 64.2742 138.849 71.2495 111.836C78.2248 84.8242 104.256 67.2018 132.004 70.7076C159.752 74.2134 180.554 97.7531 180.555 125.647C181.048 130.887 185.459 134.891 190.736 134.891C196.014 134.891 200.425 130.887 200.918 125.647C200.918 83.8806 166.994 50.0086 125.114 49.9593C89.9863 49.8962 59.4054 73.8829 51.1892 107.944C42.973 142.005 59.2689 177.238 90.5824 193.115C121.896 208.992 160.043 201.363 182.797 174.673L198.945 188.272C180.582 209.951 153.57 222.455 125.114 222.448C72.68 220.857 31 178.007 31 125.691C31 73.3753 72.68 30.5253 125.114 28.935ZM125.114 91.3815C112.403 90.7508 100.379 97.1606 93.8436 108.051C87.308 118.942 87.3258 132.539 93.8899 143.413C100.454 154.286 112.495 160.665 125.204 160.001C143.521 159.044 157.875 143.941 157.851 125.649C157.827 107.356 143.434 92.2906 125.114 91.3815ZM125.114 111.78C132.794 111.78 139.019 117.988 139.019 125.647C139.019 133.305 132.794 139.514 125.114 139.514C117.435 139.514 111.21 133.305 111.21 125.647C111.21 117.988 117.435 111.78 125.114 111.78Z" fill="#F06B66"/>
</g>
<defs>
<clipPath id="clip0_16_8">
<rect width="191" height="194.201" fill="white" transform="translate(31 28.8994)"/>
</clipPath>
</defs>
</svg>
