<svg width="372" height="372" viewBox="0 0 372 372" fill="none" xmlns="http://www.w3.org/2000/svg">
<g clip-path="url(#clip0_10_2)">
<path d="M214.276 58.3976C200.613 42.1362 188.848 25.6207 186.445 22.1906C186.191 21.9365 185.812 21.9365 185.559 22.1906C183.155 25.6207 171.39 42.1362 157.728 58.3976C40.4577 208.434 176.198 309.688 176.198 309.688L177.336 310.45C178.348 326.076 180.878 348.563 180.878 348.563H185.938H190.999C190.999 348.563 193.529 326.203 194.541 310.45L195.679 309.561C195.806 309.688 331.546 208.434 214.276 58.3976ZM185.938 307.401C185.938 307.401 179.866 302.192 178.222 299.525V299.27L185.559 135.894C185.559 135.385 186.318 135.385 186.318 135.894L193.655 299.27V299.525C192.011 302.192 185.938 307.401 185.938 307.401Z" fill="#01EC64"/>
</g>
<defs>
<clipPath id="clip0_10_2">
<rect width="152" height="327" fill="white" transform="translate(110 22)"/>
</clipPath>
</defs>
</svg>
