<svg width="253" height="253" viewBox="0 0 253 253" fill="none" xmlns="http://www.w3.org/2000/svg">
<path d="M201.966 171.753L136.767 32.9935C135.116 29.5145 131.695 27.2224 127.857 27.0233C124.009 26.7649 120.338 28.6724 118.331 31.9724L47.6149 146.756C45.4196 150.294 45.4658 154.786 47.7334 158.278L82.3069 211.934C84.9932 216.071 90.0747 217.944 94.7951 216.537L195.127 186.795C198.183 185.899 200.702 183.72 202.032 180.82C203.344 177.934 203.321 174.616 201.971 171.748L201.966 171.753ZM187.369 177.704L102.231 202.934C99.6339 203.708 97.1411 201.452 97.6813 198.826L128.098 52.8658C128.667 50.1348 132.43 49.7026 133.62 52.2294L189.928 172.062C190.432 173.142 190.438 174.39 189.944 175.476C189.451 176.561 188.508 177.376 187.364 177.704H187.369Z" fill="#F5F5F5"/>
</svg>
