<svg width="368" height="368" viewBox="0 0 368 368" fill="none" xmlns="http://www.w3.org/2000/svg">
<g clip-path="url(#clip0_9_832)">
<path d="M24.3446 184C24.3446 247.268 61.1446 301.76 114.363 327.662L38.2154 119.034C29.0716 139.472 24.3446 161.61 24.3446 184ZM184 343.655C202.542 343.655 220.375 340.4 237.077 334.597L235.945 332.474L186.831 198.012L138.991 337.145C153.145 341.391 168.289 343.655 184 343.655ZM205.938 109.126L263.686 280.812L279.68 227.594C286.474 205.514 291.711 189.662 291.711 175.932C291.711 156.117 284.634 142.529 278.689 132.055C270.48 118.751 262.978 107.569 262.978 94.5477C262.978 79.8277 274.018 66.24 289.871 66.24H291.852C262.434 39.2332 223.935 24.2781 184 24.3444C130.286 24.3346 80.1731 51.3592 50.6708 96.2462L60.8615 96.5292C77.5631 96.5292 103.323 94.4061 103.323 94.4061C112.098 93.9815 113.089 106.578 104.455 107.569C104.455 107.569 95.8215 108.702 86.0554 109.126L144.369 282.086L179.329 177.348L154.418 109.126C148.839 108.818 143.269 108.346 137.717 107.711C129.083 107.145 130.074 93.9815 138.708 94.4061C138.708 94.4061 165.034 96.5292 180.745 96.5292C197.446 96.5292 223.206 94.4061 223.206 94.4061C231.84 93.9815 232.972 106.578 224.338 107.569C224.338 107.569 215.705 108.56 205.938 109.126ZM264.252 322C313.404 293.42 343.648 240.857 343.655 184C343.655 156.258 336.578 130.215 324.123 107.428C326.652 132.498 322.857 157.803 313.083 181.028L264.252 322ZM184 368C82.3796 368 0 285.62 0 184C0 82.3796 82.3796 0 184 0C285.62 0 368 82.3796 368 184C368 285.62 285.62 368 184 368Z" fill="#F5F5F5"/>
</g>
<defs>
<clipPath id="clip0_9_832">
<rect width="368" height="368" fill="white"/>
</clipPath>
</defs>
</svg>
